# xmcd CD database file
#
# Track frame offsets:
#	150
#	12853
#	25950
#	38516
#	50494
#	61415
#	74086
#	86322
#	99763
#	110552
#	121287
#	132551
#	144971
#	156818
#	165597
#	176587
#	189079
#	199129
#	210827
#	221066
#
# Disc length: 3121 seconds
#
# Revision: 0
# Processed by: cddbd v1.5.2PL0 Copyright (c) Steve Scherf et al.
# Submitted via: CDex 1.81
#
DISCID=0e0c2f14
DTITLE=Mickey Gilley - The Definitive Hits Collection [CD1]
DYEAR=2016
DGENRE=Country
TTITLE0=Room Full of Roses
TTITLE1=I Overlooked an Orchid
TTITLE2=City Lights
TTITLE3=Window up Above
TTITLE4=Bouquet of Roses
TTITLE5=Overnight Sensation
TTITLE6=I'll Sail My Ship Alone
TTITLE7=Don't the Girls All Get Prettier at Closing Time
TTITLE8=Bring It on Home to Me
TTITLE9=Lawdy Miss Clawdy
TTITLE10=She's Pulling Me Back Again
TTITLE11=Honky Tonk Memories
TTITLE12=Chains of Love
TTITLE13=#1 Rock 'N' Roll C&W Boogie Blues Man
TTITLE14=The Power of Positive Drinkin'
TTITLE15=Here Comes the Hurt Again
TTITLE16=The Song We Made Love To
TTITLE17=Just Long Enough to Say Goodbye
TTITLE18=My Silver Lining
TTITLE19=True Love Ways
EXTD=YEAR: 2016
EXTT0=
EXTT1=
EXTT2=
EXTT3=
EXTT4=
EXTT5=
EXTT6=
EXTT7=
EXTT8=
EXTT9=
EXTT10=
EXTT11=
EXTT12=
EXTT13=
EXTT14=
EXTT15=
EXTT16=
EXTT17=
EXTT18=
EXTT19=
PLAYORDER=
